<svg xmlns="http://www.w3.org/2000/svg" width="40.045" height="40.045" viewBox="0 0 40.045 40.045">
  <path id="Icon_awesome-check-circle" data-name="Icon awesome-check-circle" d="M40.607,20.585A20.022,20.022,0,1,1,20.585.563,20.022,20.022,0,0,1,40.607,20.585Zm-22.338,10.6L33.124,16.331a1.292,1.292,0,0,0,0-1.827L31.3,12.678a1.292,1.292,0,0,0-1.827,0L17.356,24.793,11.7,19.136a1.292,1.292,0,0,0-1.827,0L8.046,20.963a1.292,1.292,0,0,0,0,1.827l8.4,8.4a1.292,1.292,0,0,0,1.827,0Z" transform="translate(-0.563 -0.563)" fill="#01ee55"/>
</svg>
